<mxfile host="app.diagrams.net" modified="2022-12-06T03:51:09.239Z" agent="5.0 (Windows NT 10.0; Win64; x64) AppleWebKit/537.36 (KHTML, like Gecko) Chrome/108.0.0.0 Safari/537.36" etag="iYb8p_loZ_OA4PIeHfZ1" version="20.6.0" type="github">
  <diagram id="yN6iOvYe5Qdf1nTJ3J4i" name="PÃ¡gina-1">
    <mxGraphModel dx="3125" dy="1980" grid="1" gridSize="10" guides="1" tooltips="1" connect="1" arrows="1" fold="1" page="1" pageScale="1" pageWidth="850" pageHeight="1100" math="0" shadow="0" extFonts="Permanent Marker^https://fonts.googleapis.com/css?family=Permanent+Marker">
      <root>
        <mxCell id="0" />
        <mxCell id="1" parent="0" />
        <mxCell id="peJY58UMKQyecSpsiy6I-1" value="Comentario" style="shape=table;startSize=30;container=1;collapsible=1;childLayout=tableLayout;fixedRows=1;rowLines=0;fontStyle=1;align=center;resizeLast=1;fillColor=#d5e8d4;strokeColor=#82b366;" parent="1" vertex="1">
          <mxGeometry x="-490" y="10" width="250" height="220" as="geometry" />
        </mxCell>
        <mxCell id="peJY58UMKQyecSpsiy6I-2" value="" style="shape=partialRectangle;collapsible=0;dropTarget=0;pointerEvents=0;fillColor=none;points=[[0,0.5],[1,0.5]];portConstraint=eastwest;top=0;left=0;right=0;bottom=1;" parent="peJY58UMKQyecSpsiy6I-1" vertex="1">
          <mxGeometry y="30" width="250" height="30" as="geometry" />
        </mxCell>
        <mxCell id="peJY58UMKQyecSpsiy6I-3" value="PK" style="shape=partialRectangle;overflow=hidden;connectable=0;fillColor=none;top=0;left=0;bottom=0;right=0;fontStyle=1;" parent="peJY58UMKQyecSpsiy6I-2" vertex="1">
          <mxGeometry width="30" height="30" as="geometry">
            <mxRectangle width="30" height="30" as="alternateBounds" />
          </mxGeometry>
        </mxCell>
        <mxCell id="peJY58UMKQyecSpsiy6I-4" value="id int NOT NULL " style="shape=partialRectangle;overflow=hidden;connectable=0;fillColor=none;top=0;left=0;bottom=0;right=0;align=left;spacingLeft=6;fontStyle=5;" parent="peJY58UMKQyecSpsiy6I-2" vertex="1">
          <mxGeometry x="30" width="220" height="30" as="geometry">
            <mxRectangle width="220" height="30" as="alternateBounds" />
          </mxGeometry>
        </mxCell>
        <mxCell id="peJY58UMKQyecSpsiy6I-5" value="" style="shape=partialRectangle;collapsible=0;dropTarget=0;pointerEvents=0;fillColor=none;points=[[0,0.5],[1,0.5]];portConstraint=eastwest;top=0;left=0;right=0;bottom=0;" parent="peJY58UMKQyecSpsiy6I-1" vertex="1">
          <mxGeometry y="60" width="250" height="30" as="geometry" />
        </mxCell>
        <mxCell id="peJY58UMKQyecSpsiy6I-6" value="" style="shape=partialRectangle;overflow=hidden;connectable=0;fillColor=none;top=0;left=0;bottom=0;right=0;" parent="peJY58UMKQyecSpsiy6I-5" vertex="1">
          <mxGeometry width="30" height="30" as="geometry">
            <mxRectangle width="30" height="30" as="alternateBounds" />
          </mxGeometry>
        </mxCell>
        <mxCell id="peJY58UMKQyecSpsiy6I-7" value="comentario varchar(255) NOT NULL" style="shape=partialRectangle;overflow=hidden;connectable=0;fillColor=none;top=0;left=0;bottom=0;right=0;align=left;spacingLeft=6;" parent="peJY58UMKQyecSpsiy6I-5" vertex="1">
          <mxGeometry x="30" width="220" height="30" as="geometry">
            <mxRectangle width="220" height="30" as="alternateBounds" />
          </mxGeometry>
        </mxCell>
        <mxCell id="peJY58UMKQyecSpsiy6I-8" value="" style="shape=partialRectangle;collapsible=0;dropTarget=0;pointerEvents=0;fillColor=none;points=[[0,0.5],[1,0.5]];portConstraint=eastwest;top=0;left=0;right=0;bottom=0;" parent="peJY58UMKQyecSpsiy6I-1" vertex="1">
          <mxGeometry y="90" width="250" height="30" as="geometry" />
        </mxCell>
        <mxCell id="peJY58UMKQyecSpsiy6I-9" value="" style="shape=partialRectangle;overflow=hidden;connectable=0;fillColor=none;top=0;left=0;bottom=0;right=0;" parent="peJY58UMKQyecSpsiy6I-8" vertex="1">
          <mxGeometry width="30" height="30" as="geometry">
            <mxRectangle width="30" height="30" as="alternateBounds" />
          </mxGeometry>
        </mxCell>
        <mxCell id="peJY58UMKQyecSpsiy6I-10" value="fecha_comentario datetime NOT NULL" style="shape=partialRectangle;overflow=hidden;connectable=0;fillColor=none;top=0;left=0;bottom=0;right=0;align=left;spacingLeft=6;" parent="peJY58UMKQyecSpsiy6I-8" vertex="1">
          <mxGeometry x="30" width="220" height="30" as="geometry">
            <mxRectangle width="220" height="30" as="alternateBounds" />
          </mxGeometry>
        </mxCell>
        <mxCell id="peJY58UMKQyecSpsiy6I-11" value="" style="shape=partialRectangle;collapsible=0;dropTarget=0;pointerEvents=0;fillColor=none;points=[[0,0.5],[1,0.5]];portConstraint=eastwest;top=0;left=0;right=0;bottom=0;" parent="peJY58UMKQyecSpsiy6I-1" vertex="1">
          <mxGeometry y="120" width="250" height="30" as="geometry" />
        </mxCell>
        <mxCell id="peJY58UMKQyecSpsiy6I-12" value="" style="shape=partialRectangle;overflow=hidden;connectable=0;fillColor=none;top=0;left=0;bottom=0;right=0;" parent="peJY58UMKQyecSpsiy6I-11" vertex="1">
          <mxGeometry width="30" height="30" as="geometry">
            <mxRectangle width="30" height="30" as="alternateBounds" />
          </mxGeometry>
        </mxCell>
        <mxCell id="peJY58UMKQyecSpsiy6I-13" value="status int NOT NULL" style="shape=partialRectangle;overflow=hidden;connectable=0;fillColor=none;top=0;left=0;bottom=0;right=0;align=left;spacingLeft=6;" parent="peJY58UMKQyecSpsiy6I-11" vertex="1">
          <mxGeometry x="30" width="220" height="30" as="geometry">
            <mxRectangle width="220" height="30" as="alternateBounds" />
          </mxGeometry>
        </mxCell>
        <mxCell id="peJY58UMKQyecSpsiy6I-14" value="" style="shape=partialRectangle;collapsible=0;dropTarget=0;pointerEvents=0;fillColor=none;points=[[0,0.5],[1,0.5]];portConstraint=eastwest;top=0;left=0;right=0;bottom=0;" parent="peJY58UMKQyecSpsiy6I-1" vertex="1">
          <mxGeometry y="150" width="250" height="30" as="geometry" />
        </mxCell>
        <mxCell id="peJY58UMKQyecSpsiy6I-15" value="" style="shape=partialRectangle;overflow=hidden;connectable=0;fillColor=none;top=0;left=0;bottom=0;right=0;" parent="peJY58UMKQyecSpsiy6I-14" vertex="1">
          <mxGeometry width="30" height="30" as="geometry">
            <mxRectangle width="30" height="30" as="alternateBounds" />
          </mxGeometry>
        </mxCell>
        <mxCell id="peJY58UMKQyecSpsiy6I-16" value="id_publicacion int NOT NULL" style="shape=partialRectangle;overflow=hidden;connectable=0;fillColor=none;top=0;left=0;bottom=0;right=0;align=left;spacingLeft=6;fontStyle=1" parent="peJY58UMKQyecSpsiy6I-14" vertex="1">
          <mxGeometry x="30" width="220" height="30" as="geometry">
            <mxRectangle width="220" height="30" as="alternateBounds" />
          </mxGeometry>
        </mxCell>
        <mxCell id="peJY58UMKQyecSpsiy6I-17" value="" style="shape=partialRectangle;collapsible=0;dropTarget=0;pointerEvents=0;fillColor=none;points=[[0,0.5],[1,0.5]];portConstraint=eastwest;top=0;left=0;right=0;bottom=0;" parent="peJY58UMKQyecSpsiy6I-1" vertex="1">
          <mxGeometry y="180" width="250" height="30" as="geometry" />
        </mxCell>
        <mxCell id="peJY58UMKQyecSpsiy6I-18" value="" style="shape=partialRectangle;overflow=hidden;connectable=0;fillColor=none;top=0;left=0;bottom=0;right=0;" parent="peJY58UMKQyecSpsiy6I-17" vertex="1">
          <mxGeometry width="30" height="30" as="geometry">
            <mxRectangle width="30" height="30" as="alternateBounds" />
          </mxGeometry>
        </mxCell>
        <mxCell id="peJY58UMKQyecSpsiy6I-19" value="id_usuario int NOT NULL" style="shape=partialRectangle;overflow=hidden;connectable=0;fillColor=none;top=0;left=0;bottom=0;right=0;align=left;spacingLeft=6;fontStyle=1" parent="peJY58UMKQyecSpsiy6I-17" vertex="1">
          <mxGeometry x="30" width="220" height="30" as="geometry">
            <mxRectangle width="220" height="30" as="alternateBounds" />
          </mxGeometry>
        </mxCell>
        <mxCell id="peJY58UMKQyecSpsiy6I-20" value="Noticia" style="shape=table;startSize=30;container=1;collapsible=1;childLayout=tableLayout;fixedRows=1;rowLines=0;fontStyle=1;align=center;resizeLast=1;fillColor=#d5e8d4;strokeColor=#82b366;" parent="1" vertex="1">
          <mxGeometry x="80" width="250" height="310" as="geometry" />
        </mxCell>
        <mxCell id="peJY58UMKQyecSpsiy6I-21" value="" style="shape=partialRectangle;collapsible=0;dropTarget=0;pointerEvents=0;fillColor=none;points=[[0,0.5],[1,0.5]];portConstraint=eastwest;top=0;left=0;right=0;bottom=1;" parent="peJY58UMKQyecSpsiy6I-20" vertex="1">
          <mxGeometry y="30" width="250" height="30" as="geometry" />
        </mxCell>
        <mxCell id="peJY58UMKQyecSpsiy6I-22" value="PK" style="shape=partialRectangle;overflow=hidden;connectable=0;fillColor=none;top=0;left=0;bottom=0;right=0;fontStyle=1;" parent="peJY58UMKQyecSpsiy6I-21" vertex="1">
          <mxGeometry width="30" height="30" as="geometry">
            <mxRectangle width="30" height="30" as="alternateBounds" />
          </mxGeometry>
        </mxCell>
        <mxCell id="peJY58UMKQyecSpsiy6I-23" value="id int NOT NULL " style="shape=partialRectangle;overflow=hidden;connectable=0;fillColor=none;top=0;left=0;bottom=0;right=0;align=left;spacingLeft=6;fontStyle=5;" parent="peJY58UMKQyecSpsiy6I-21" vertex="1">
          <mxGeometry x="30" width="220" height="30" as="geometry">
            <mxRectangle width="220" height="30" as="alternateBounds" />
          </mxGeometry>
        </mxCell>
        <mxCell id="peJY58UMKQyecSpsiy6I-24" value="" style="shape=partialRectangle;collapsible=0;dropTarget=0;pointerEvents=0;fillColor=none;points=[[0,0.5],[1,0.5]];portConstraint=eastwest;top=0;left=0;right=0;bottom=0;" parent="peJY58UMKQyecSpsiy6I-20" vertex="1">
          <mxGeometry y="60" width="250" height="30" as="geometry" />
        </mxCell>
        <mxCell id="peJY58UMKQyecSpsiy6I-25" value="" style="shape=partialRectangle;overflow=hidden;connectable=0;fillColor=none;top=0;left=0;bottom=0;right=0;" parent="peJY58UMKQyecSpsiy6I-24" vertex="1">
          <mxGeometry width="30" height="30" as="geometry">
            <mxRectangle width="30" height="30" as="alternateBounds" />
          </mxGeometry>
        </mxCell>
        <mxCell id="peJY58UMKQyecSpsiy6I-26" value="titulo varchar (255) NOT NULL" style="shape=partialRectangle;overflow=hidden;connectable=0;fillColor=none;top=0;left=0;bottom=0;right=0;align=left;spacingLeft=6;" parent="peJY58UMKQyecSpsiy6I-24" vertex="1">
          <mxGeometry x="30" width="220" height="30" as="geometry">
            <mxRectangle width="220" height="30" as="alternateBounds" />
          </mxGeometry>
        </mxCell>
        <mxCell id="peJY58UMKQyecSpsiy6I-27" value="" style="shape=partialRectangle;collapsible=0;dropTarget=0;pointerEvents=0;fillColor=none;points=[[0,0.5],[1,0.5]];portConstraint=eastwest;top=0;left=0;right=0;bottom=0;" parent="peJY58UMKQyecSpsiy6I-20" vertex="1">
          <mxGeometry y="90" width="250" height="30" as="geometry" />
        </mxCell>
        <mxCell id="peJY58UMKQyecSpsiy6I-28" value="" style="shape=partialRectangle;overflow=hidden;connectable=0;fillColor=none;top=0;left=0;bottom=0;right=0;" parent="peJY58UMKQyecSpsiy6I-27" vertex="1">
          <mxGeometry width="30" height="30" as="geometry">
            <mxRectangle width="30" height="30" as="alternateBounds" />
          </mxGeometry>
        </mxCell>
        <mxCell id="peJY58UMKQyecSpsiy6I-29" value="teaser varchar (511) NOT NULL" style="shape=partialRectangle;overflow=hidden;connectable=0;fillColor=none;top=0;left=0;bottom=0;right=0;align=left;spacingLeft=6;" parent="peJY58UMKQyecSpsiy6I-27" vertex="1">
          <mxGeometry x="30" width="220" height="30" as="geometry">
            <mxRectangle width="220" height="30" as="alternateBounds" />
          </mxGeometry>
        </mxCell>
        <mxCell id="peJY58UMKQyecSpsiy6I-30" value="" style="shape=partialRectangle;collapsible=0;dropTarget=0;pointerEvents=0;fillColor=none;points=[[0,0.5],[1,0.5]];portConstraint=eastwest;top=0;left=0;right=0;bottom=0;" parent="peJY58UMKQyecSpsiy6I-20" vertex="1">
          <mxGeometry y="120" width="250" height="30" as="geometry" />
        </mxCell>
        <mxCell id="peJY58UMKQyecSpsiy6I-31" value="" style="shape=partialRectangle;overflow=hidden;connectable=0;fillColor=none;top=0;left=0;bottom=0;right=0;" parent="peJY58UMKQyecSpsiy6I-30" vertex="1">
          <mxGeometry width="30" height="30" as="geometry">
            <mxRectangle width="30" height="30" as="alternateBounds" />
          </mxGeometry>
        </mxCell>
        <mxCell id="peJY58UMKQyecSpsiy6I-32" value="contenido text NOT NULL" style="shape=partialRectangle;overflow=hidden;connectable=0;fillColor=none;top=0;left=0;bottom=0;right=0;align=left;spacingLeft=6;" parent="peJY58UMKQyecSpsiy6I-30" vertex="1">
          <mxGeometry x="30" width="220" height="30" as="geometry">
            <mxRectangle width="220" height="30" as="alternateBounds" />
          </mxGeometry>
        </mxCell>
        <mxCell id="peJY58UMKQyecSpsiy6I-33" value="" style="shape=partialRectangle;collapsible=0;dropTarget=0;pointerEvents=0;fillColor=none;points=[[0,0.5],[1,0.5]];portConstraint=eastwest;top=0;left=0;right=0;bottom=0;" parent="peJY58UMKQyecSpsiy6I-20" vertex="1">
          <mxGeometry y="150" width="250" height="30" as="geometry" />
        </mxCell>
        <mxCell id="peJY58UMKQyecSpsiy6I-34" value="" style="shape=partialRectangle;overflow=hidden;connectable=0;fillColor=none;top=0;left=0;bottom=0;right=0;" parent="peJY58UMKQyecSpsiy6I-33" vertex="1">
          <mxGeometry width="30" height="30" as="geometry">
            <mxRectangle width="30" height="30" as="alternateBounds" />
          </mxGeometry>
        </mxCell>
        <mxCell id="peJY58UMKQyecSpsiy6I-35" value="fecha_creacion datetime NOT NULL" style="shape=partialRectangle;overflow=hidden;connectable=0;fillColor=none;top=0;left=0;bottom=0;right=0;align=left;spacingLeft=6;" parent="peJY58UMKQyecSpsiy6I-33" vertex="1">
          <mxGeometry x="30" width="220" height="30" as="geometry">
            <mxRectangle width="220" height="30" as="alternateBounds" />
          </mxGeometry>
        </mxCell>
        <mxCell id="peJY58UMKQyecSpsiy6I-36" value="" style="shape=partialRectangle;collapsible=0;dropTarget=0;pointerEvents=0;fillColor=none;points=[[0,0.5],[1,0.5]];portConstraint=eastwest;top=0;left=0;right=0;bottom=0;" parent="peJY58UMKQyecSpsiy6I-20" vertex="1">
          <mxGeometry y="180" width="250" height="30" as="geometry" />
        </mxCell>
        <mxCell id="peJY58UMKQyecSpsiy6I-37" value="" style="shape=partialRectangle;overflow=hidden;connectable=0;fillColor=none;top=0;left=0;bottom=0;right=0;" parent="peJY58UMKQyecSpsiy6I-36" vertex="1">
          <mxGeometry width="30" height="30" as="geometry">
            <mxRectangle width="30" height="30" as="alternateBounds" />
          </mxGeometry>
        </mxCell>
        <mxCell id="peJY58UMKQyecSpsiy6I-38" value="imagen varchar (255) NOT NULL" style="shape=partialRectangle;overflow=hidden;connectable=0;fillColor=none;top=0;left=0;bottom=0;right=0;align=left;spacingLeft=6;" parent="peJY58UMKQyecSpsiy6I-36" vertex="1">
          <mxGeometry x="30" width="220" height="30" as="geometry">
            <mxRectangle width="220" height="30" as="alternateBounds" />
          </mxGeometry>
        </mxCell>
        <mxCell id="peJY58UMKQyecSpsiy6I-39" value="" style="shape=partialRectangle;collapsible=0;dropTarget=0;pointerEvents=0;fillColor=none;points=[[0,0.5],[1,0.5]];portConstraint=eastwest;top=0;left=0;right=0;bottom=0;" parent="peJY58UMKQyecSpsiy6I-20" vertex="1">
          <mxGeometry y="210" width="250" height="30" as="geometry" />
        </mxCell>
        <mxCell id="peJY58UMKQyecSpsiy6I-40" value="" style="shape=partialRectangle;overflow=hidden;connectable=0;fillColor=none;top=0;left=0;bottom=0;right=0;" parent="peJY58UMKQyecSpsiy6I-39" vertex="1">
          <mxGeometry width="30" height="30" as="geometry">
            <mxRectangle width="30" height="30" as="alternateBounds" />
          </mxGeometry>
        </mxCell>
        <mxCell id="peJY58UMKQyecSpsiy6I-41" value="status int NOT NULL" style="shape=partialRectangle;overflow=hidden;connectable=0;fillColor=none;top=0;left=0;bottom=0;right=0;align=left;spacingLeft=6;" parent="peJY58UMKQyecSpsiy6I-39" vertex="1">
          <mxGeometry x="30" width="220" height="30" as="geometry">
            <mxRectangle width="220" height="30" as="alternateBounds" />
          </mxGeometry>
        </mxCell>
        <mxCell id="peJY58UMKQyecSpsiy6I-42" value="" style="shape=partialRectangle;collapsible=0;dropTarget=0;pointerEvents=0;fillColor=none;points=[[0,0.5],[1,0.5]];portConstraint=eastwest;top=0;left=0;right=0;bottom=0;" parent="peJY58UMKQyecSpsiy6I-20" vertex="1">
          <mxGeometry y="240" width="250" height="30" as="geometry" />
        </mxCell>
        <mxCell id="peJY58UMKQyecSpsiy6I-43" value="FK1" style="shape=partialRectangle;overflow=hidden;connectable=0;fillColor=none;top=0;left=0;bottom=0;right=0;" parent="peJY58UMKQyecSpsiy6I-42" vertex="1">
          <mxGeometry width="30" height="30" as="geometry">
            <mxRectangle width="30" height="30" as="alternateBounds" />
          </mxGeometry>
        </mxCell>
        <mxCell id="peJY58UMKQyecSpsiy6I-44" value="id_categoria int NOT NULL" style="shape=partialRectangle;overflow=hidden;connectable=0;fillColor=none;top=0;left=0;bottom=0;right=0;align=left;spacingLeft=6;fontStyle=1" parent="peJY58UMKQyecSpsiy6I-42" vertex="1">
          <mxGeometry x="30" width="220" height="30" as="geometry">
            <mxRectangle width="220" height="30" as="alternateBounds" />
          </mxGeometry>
        </mxCell>
        <mxCell id="2p5wsxLzij-L3OVKS2zf-18" value="" style="shape=partialRectangle;collapsible=0;dropTarget=0;pointerEvents=0;fillColor=none;points=[[0,0.5],[1,0.5]];portConstraint=eastwest;top=0;left=0;right=0;bottom=0;" vertex="1" parent="peJY58UMKQyecSpsiy6I-20">
          <mxGeometry y="270" width="250" height="30" as="geometry" />
        </mxCell>
        <mxCell id="2p5wsxLzij-L3OVKS2zf-19" value="FK2" style="shape=partialRectangle;overflow=hidden;connectable=0;fillColor=none;top=0;left=0;bottom=0;right=0;" vertex="1" parent="2p5wsxLzij-L3OVKS2zf-18">
          <mxGeometry width="30" height="30" as="geometry">
            <mxRectangle width="30" height="30" as="alternateBounds" />
          </mxGeometry>
        </mxCell>
        <mxCell id="2p5wsxLzij-L3OVKS2zf-20" value="id_usuario int NOT NULL" style="shape=partialRectangle;overflow=hidden;connectable=0;fillColor=none;top=0;left=0;bottom=0;right=0;align=left;spacingLeft=6;fontStyle=1" vertex="1" parent="2p5wsxLzij-L3OVKS2zf-18">
          <mxGeometry x="30" width="220" height="30" as="geometry">
            <mxRectangle width="220" height="30" as="alternateBounds" />
          </mxGeometry>
        </mxCell>
        <mxCell id="peJY58UMKQyecSpsiy6I-45" value="Usuario" style="shape=table;startSize=30;container=1;collapsible=1;childLayout=tableLayout;fixedRows=1;rowLines=0;fontStyle=1;align=center;resizeLast=1;fillColor=#d5e8d4;strokeColor=#82b366;" parent="1" vertex="1">
          <mxGeometry x="-230" y="330" width="250" height="330" as="geometry" />
        </mxCell>
        <mxCell id="peJY58UMKQyecSpsiy6I-46" value="" style="shape=partialRectangle;collapsible=0;dropTarget=0;pointerEvents=0;fillColor=none;points=[[0,0.5],[1,0.5]];portConstraint=eastwest;top=0;left=0;right=0;bottom=1;" parent="peJY58UMKQyecSpsiy6I-45" vertex="1">
          <mxGeometry y="30" width="250" height="30" as="geometry" />
        </mxCell>
        <mxCell id="peJY58UMKQyecSpsiy6I-47" value="PK" style="shape=partialRectangle;overflow=hidden;connectable=0;fillColor=none;top=0;left=0;bottom=0;right=0;fontStyle=1;" parent="peJY58UMKQyecSpsiy6I-46" vertex="1">
          <mxGeometry width="30" height="30" as="geometry">
            <mxRectangle width="30" height="30" as="alternateBounds" />
          </mxGeometry>
        </mxCell>
        <mxCell id="peJY58UMKQyecSpsiy6I-48" value="id int NOT NULL " style="shape=partialRectangle;overflow=hidden;connectable=0;fillColor=none;top=0;left=0;bottom=0;right=0;align=left;spacingLeft=6;fontStyle=5;" parent="peJY58UMKQyecSpsiy6I-46" vertex="1">
          <mxGeometry x="30" width="220" height="30" as="geometry">
            <mxRectangle width="220" height="30" as="alternateBounds" />
          </mxGeometry>
        </mxCell>
        <mxCell id="peJY58UMKQyecSpsiy6I-49" value="" style="shape=partialRectangle;collapsible=0;dropTarget=0;pointerEvents=0;fillColor=none;points=[[0,0.5],[1,0.5]];portConstraint=eastwest;top=0;left=0;right=0;bottom=0;" parent="peJY58UMKQyecSpsiy6I-45" vertex="1">
          <mxGeometry y="60" width="250" height="30" as="geometry" />
        </mxCell>
        <mxCell id="peJY58UMKQyecSpsiy6I-50" value="" style="shape=partialRectangle;overflow=hidden;connectable=0;fillColor=none;top=0;left=0;bottom=0;right=0;" parent="peJY58UMKQyecSpsiy6I-49" vertex="1">
          <mxGeometry width="30" height="30" as="geometry">
            <mxRectangle width="30" height="30" as="alternateBounds" />
          </mxGeometry>
        </mxCell>
        <mxCell id="peJY58UMKQyecSpsiy6I-51" value="nombre varchar (50) NOT NULL" style="shape=partialRectangle;overflow=hidden;connectable=0;fillColor=none;top=0;left=0;bottom=0;right=0;align=left;spacingLeft=6;" parent="peJY58UMKQyecSpsiy6I-49" vertex="1">
          <mxGeometry x="30" width="220" height="30" as="geometry">
            <mxRectangle width="220" height="30" as="alternateBounds" />
          </mxGeometry>
        </mxCell>
        <mxCell id="peJY58UMKQyecSpsiy6I-52" value="" style="shape=partialRectangle;collapsible=0;dropTarget=0;pointerEvents=0;fillColor=none;points=[[0,0.5],[1,0.5]];portConstraint=eastwest;top=0;left=0;right=0;bottom=0;" parent="peJY58UMKQyecSpsiy6I-45" vertex="1">
          <mxGeometry y="90" width="250" height="30" as="geometry" />
        </mxCell>
        <mxCell id="peJY58UMKQyecSpsiy6I-53" value="" style="shape=partialRectangle;overflow=hidden;connectable=0;fillColor=none;top=0;left=0;bottom=0;right=0;" parent="peJY58UMKQyecSpsiy6I-52" vertex="1">
          <mxGeometry width="30" height="30" as="geometry">
            <mxRectangle width="30" height="30" as="alternateBounds" />
          </mxGeometry>
        </mxCell>
        <mxCell id="peJY58UMKQyecSpsiy6I-54" value="apellido varchar (50) NOT NULL" style="shape=partialRectangle;overflow=hidden;connectable=0;fillColor=none;top=0;left=0;bottom=0;right=0;align=left;spacingLeft=6;" parent="peJY58UMKQyecSpsiy6I-52" vertex="1">
          <mxGeometry x="30" width="220" height="30" as="geometry">
            <mxRectangle width="220" height="30" as="alternateBounds" />
          </mxGeometry>
        </mxCell>
        <mxCell id="peJY58UMKQyecSpsiy6I-55" value="" style="shape=partialRectangle;collapsible=0;dropTarget=0;pointerEvents=0;fillColor=none;points=[[0,0.5],[1,0.5]];portConstraint=eastwest;top=0;left=0;right=0;bottom=0;" parent="peJY58UMKQyecSpsiy6I-45" vertex="1">
          <mxGeometry y="120" width="250" height="30" as="geometry" />
        </mxCell>
        <mxCell id="peJY58UMKQyecSpsiy6I-56" value="" style="shape=partialRectangle;overflow=hidden;connectable=0;fillColor=none;top=0;left=0;bottom=0;right=0;" parent="peJY58UMKQyecSpsiy6I-55" vertex="1">
          <mxGeometry width="30" height="30" as="geometry">
            <mxRectangle width="30" height="30" as="alternateBounds" />
          </mxGeometry>
        </mxCell>
        <mxCell id="peJY58UMKQyecSpsiy6I-57" value="usuario varchar (50) NOT NULL" style="shape=partialRectangle;overflow=hidden;connectable=0;fillColor=none;top=0;left=0;bottom=0;right=0;align=left;spacingLeft=6;" parent="peJY58UMKQyecSpsiy6I-55" vertex="1">
          <mxGeometry x="30" width="220" height="30" as="geometry">
            <mxRectangle width="220" height="30" as="alternateBounds" />
          </mxGeometry>
        </mxCell>
        <mxCell id="peJY58UMKQyecSpsiy6I-58" value="" style="shape=partialRectangle;collapsible=0;dropTarget=0;pointerEvents=0;fillColor=none;points=[[0,0.5],[1,0.5]];portConstraint=eastwest;top=0;left=0;right=0;bottom=0;" parent="peJY58UMKQyecSpsiy6I-45" vertex="1">
          <mxGeometry y="150" width="250" height="30" as="geometry" />
        </mxCell>
        <mxCell id="peJY58UMKQyecSpsiy6I-59" value="" style="shape=partialRectangle;overflow=hidden;connectable=0;fillColor=none;top=0;left=0;bottom=0;right=0;" parent="peJY58UMKQyecSpsiy6I-58" vertex="1">
          <mxGeometry width="30" height="30" as="geometry">
            <mxRectangle width="30" height="30" as="alternateBounds" />
          </mxGeometry>
        </mxCell>
        <mxCell id="peJY58UMKQyecSpsiy6I-60" value="email varchar (255) NOT NULL" style="shape=partialRectangle;overflow=hidden;connectable=0;fillColor=none;top=0;left=0;bottom=0;right=0;align=left;spacingLeft=6;" parent="peJY58UMKQyecSpsiy6I-58" vertex="1">
          <mxGeometry x="30" width="220" height="30" as="geometry">
            <mxRectangle width="220" height="30" as="alternateBounds" />
          </mxGeometry>
        </mxCell>
        <mxCell id="peJY58UMKQyecSpsiy6I-61" value="" style="shape=partialRectangle;collapsible=0;dropTarget=0;pointerEvents=0;fillColor=none;points=[[0,0.5],[1,0.5]];portConstraint=eastwest;top=0;left=0;right=0;bottom=0;" parent="peJY58UMKQyecSpsiy6I-45" vertex="1">
          <mxGeometry y="180" width="250" height="30" as="geometry" />
        </mxCell>
        <mxCell id="peJY58UMKQyecSpsiy6I-62" value="" style="shape=partialRectangle;overflow=hidden;connectable=0;fillColor=none;top=0;left=0;bottom=0;right=0;" parent="peJY58UMKQyecSpsiy6I-61" vertex="1">
          <mxGeometry width="30" height="30" as="geometry">
            <mxRectangle width="30" height="30" as="alternateBounds" />
          </mxGeometry>
        </mxCell>
        <mxCell id="peJY58UMKQyecSpsiy6I-63" value="passw varchar (60) NOT NULL" style="shape=partialRectangle;overflow=hidden;connectable=0;fillColor=none;top=0;left=0;bottom=0;right=0;align=left;spacingLeft=6;" parent="peJY58UMKQyecSpsiy6I-61" vertex="1">
          <mxGeometry x="30" width="220" height="30" as="geometry">
            <mxRectangle width="220" height="30" as="alternateBounds" />
          </mxGeometry>
        </mxCell>
        <mxCell id="peJY58UMKQyecSpsiy6I-64" value="" style="shape=partialRectangle;collapsible=0;dropTarget=0;pointerEvents=0;fillColor=none;points=[[0,0.5],[1,0.5]];portConstraint=eastwest;top=0;left=0;right=0;bottom=0;" parent="peJY58UMKQyecSpsiy6I-45" vertex="1">
          <mxGeometry y="210" width="250" height="30" as="geometry" />
        </mxCell>
        <mxCell id="peJY58UMKQyecSpsiy6I-65" value="" style="shape=partialRectangle;overflow=hidden;connectable=0;fillColor=none;top=0;left=0;bottom=0;right=0;" parent="peJY58UMKQyecSpsiy6I-64" vertex="1">
          <mxGeometry width="30" height="30" as="geometry">
            <mxRectangle width="30" height="30" as="alternateBounds" />
          </mxGeometry>
        </mxCell>
        <mxCell id="peJY58UMKQyecSpsiy6I-66" value="status int NOT NULL" style="shape=partialRectangle;overflow=hidden;connectable=0;fillColor=none;top=0;left=0;bottom=0;right=0;align=left;spacingLeft=6;" parent="peJY58UMKQyecSpsiy6I-64" vertex="1">
          <mxGeometry x="30" width="220" height="30" as="geometry">
            <mxRectangle width="220" height="30" as="alternateBounds" />
          </mxGeometry>
        </mxCell>
        <mxCell id="peJY58UMKQyecSpsiy6I-67" value="" style="shape=partialRectangle;collapsible=0;dropTarget=0;pointerEvents=0;fillColor=none;points=[[0,0.5],[1,0.5]];portConstraint=eastwest;top=0;left=0;right=0;bottom=0;" parent="peJY58UMKQyecSpsiy6I-45" vertex="1">
          <mxGeometry y="240" width="250" height="30" as="geometry" />
        </mxCell>
        <mxCell id="peJY58UMKQyecSpsiy6I-68" value="" style="shape=partialRectangle;overflow=hidden;connectable=0;fillColor=none;top=0;left=0;bottom=0;right=0;" parent="peJY58UMKQyecSpsiy6I-67" vertex="1">
          <mxGeometry width="30" height="30" as="geometry">
            <mxRectangle width="30" height="30" as="alternateBounds" />
          </mxGeometry>
        </mxCell>
        <mxCell id="peJY58UMKQyecSpsiy6I-69" value="tipo int NOT NULL" style="shape=partialRectangle;overflow=hidden;connectable=0;fillColor=none;top=0;left=0;bottom=0;right=0;align=left;spacingLeft=6;" parent="peJY58UMKQyecSpsiy6I-67" vertex="1">
          <mxGeometry x="30" width="220" height="30" as="geometry">
            <mxRectangle width="220" height="30" as="alternateBounds" />
          </mxGeometry>
        </mxCell>
        <mxCell id="peJY58UMKQyecSpsiy6I-70" value="" style="shape=partialRectangle;collapsible=0;dropTarget=0;pointerEvents=0;fillColor=none;points=[[0,0.5],[1,0.5]];portConstraint=eastwest;top=0;left=0;right=0;bottom=0;" parent="peJY58UMKQyecSpsiy6I-45" vertex="1">
          <mxGeometry y="270" width="250" height="30" as="geometry" />
        </mxCell>
        <mxCell id="peJY58UMKQyecSpsiy6I-71" value="" style="shape=partialRectangle;overflow=hidden;connectable=0;fillColor=none;top=0;left=0;bottom=0;right=0;" parent="peJY58UMKQyecSpsiy6I-70" vertex="1">
          <mxGeometry width="30" height="30" as="geometry">
            <mxRectangle width="30" height="30" as="alternateBounds" />
          </mxGeometry>
        </mxCell>
        <mxCell id="peJY58UMKQyecSpsiy6I-72" value="fecha_creacion datetime NOT NULL" style="shape=partialRectangle;overflow=hidden;connectable=0;fillColor=none;top=0;left=0;bottom=0;right=0;align=left;spacingLeft=6;" parent="peJY58UMKQyecSpsiy6I-70" vertex="1">
          <mxGeometry x="30" width="220" height="30" as="geometry">
            <mxRectangle width="220" height="30" as="alternateBounds" />
          </mxGeometry>
        </mxCell>
        <mxCell id="peJY58UMKQyecSpsiy6I-73" value="" style="shape=partialRectangle;collapsible=0;dropTarget=0;pointerEvents=0;fillColor=none;points=[[0,0.5],[1,0.5]];portConstraint=eastwest;top=0;left=0;right=0;bottom=0;" parent="peJY58UMKQyecSpsiy6I-45" vertex="1">
          <mxGeometry y="300" width="250" height="30" as="geometry" />
        </mxCell>
        <mxCell id="peJY58UMKQyecSpsiy6I-74" value="" style="shape=partialRectangle;overflow=hidden;connectable=0;fillColor=none;top=0;left=0;bottom=0;right=0;" parent="peJY58UMKQyecSpsiy6I-73" vertex="1">
          <mxGeometry width="30" height="30" as="geometry">
            <mxRectangle width="30" height="30" as="alternateBounds" />
          </mxGeometry>
        </mxCell>
        <mxCell id="peJY58UMKQyecSpsiy6I-75" value="imagen_perfil varchar (255) NOT NULL" style="shape=partialRectangle;overflow=hidden;connectable=0;fillColor=none;top=0;left=0;bottom=0;right=0;align=left;spacingLeft=6;" parent="peJY58UMKQyecSpsiy6I-73" vertex="1">
          <mxGeometry x="30" width="220" height="30" as="geometry">
            <mxRectangle width="220" height="30" as="alternateBounds" />
          </mxGeometry>
        </mxCell>
        <mxCell id="peJY58UMKQyecSpsiy6I-76" value="Categoria" style="shape=table;startSize=30;container=1;collapsible=1;childLayout=tableLayout;fixedRows=1;rowLines=0;fontStyle=1;align=center;resizeLast=1;fillColor=#d5e8d4;strokeColor=#82b366;" parent="1" vertex="1">
          <mxGeometry x="80" y="-210" width="250" height="100" as="geometry" />
        </mxCell>
        <mxCell id="peJY58UMKQyecSpsiy6I-77" value="" style="shape=partialRectangle;collapsible=0;dropTarget=0;pointerEvents=0;fillColor=none;points=[[0,0.5],[1,0.5]];portConstraint=eastwest;top=0;left=0;right=0;bottom=1;" parent="peJY58UMKQyecSpsiy6I-76" vertex="1">
          <mxGeometry y="30" width="250" height="30" as="geometry" />
        </mxCell>
        <mxCell id="peJY58UMKQyecSpsiy6I-78" value="PK" style="shape=partialRectangle;overflow=hidden;connectable=0;fillColor=none;top=0;left=0;bottom=0;right=0;fontStyle=1;" parent="peJY58UMKQyecSpsiy6I-77" vertex="1">
          <mxGeometry width="30" height="30" as="geometry">
            <mxRectangle width="30" height="30" as="alternateBounds" />
          </mxGeometry>
        </mxCell>
        <mxCell id="peJY58UMKQyecSpsiy6I-79" value="int NOT NULL " style="shape=partialRectangle;overflow=hidden;connectable=0;fillColor=none;top=0;left=0;bottom=0;right=0;align=left;spacingLeft=6;fontStyle=5;" parent="peJY58UMKQyecSpsiy6I-77" vertex="1">
          <mxGeometry x="30" width="220" height="30" as="geometry">
            <mxRectangle width="220" height="30" as="alternateBounds" />
          </mxGeometry>
        </mxCell>
        <mxCell id="peJY58UMKQyecSpsiy6I-80" value="" style="shape=partialRectangle;collapsible=0;dropTarget=0;pointerEvents=0;fillColor=none;points=[[0,0.5],[1,0.5]];portConstraint=eastwest;top=0;left=0;right=0;bottom=0;" parent="peJY58UMKQyecSpsiy6I-76" vertex="1">
          <mxGeometry y="60" width="250" height="30" as="geometry" />
        </mxCell>
        <mxCell id="peJY58UMKQyecSpsiy6I-81" value="" style="shape=partialRectangle;overflow=hidden;connectable=0;fillColor=none;top=0;left=0;bottom=0;right=0;" parent="peJY58UMKQyecSpsiy6I-80" vertex="1">
          <mxGeometry width="30" height="30" as="geometry">
            <mxRectangle width="30" height="30" as="alternateBounds" />
          </mxGeometry>
        </mxCell>
        <mxCell id="peJY58UMKQyecSpsiy6I-82" value="categoria varchar(255) NOT NULL" style="shape=partialRectangle;overflow=hidden;connectable=0;fillColor=none;top=0;left=0;bottom=0;right=0;align=left;spacingLeft=6;" parent="peJY58UMKQyecSpsiy6I-80" vertex="1">
          <mxGeometry x="30" width="220" height="30" as="geometry">
            <mxRectangle width="220" height="30" as="alternateBounds" />
          </mxGeometry>
        </mxCell>
        <mxCell id="peJY58UMKQyecSpsiy6I-83" style="edgeStyle=orthogonalEdgeStyle;rounded=0;orthogonalLoop=1;jettySize=auto;html=1;exitX=1;exitY=0.5;exitDx=0;exitDy=0;entryX=0;entryY=0.5;entryDx=0;entryDy=0;fontSize=14;endArrow=none;endFill=0;fillColor=#d5e8d4;strokeColor=#82b366;" parent="1" source="peJY58UMKQyecSpsiy6I-84" target="peJY58UMKQyecSpsiy6I-146" edge="1">
          <mxGeometry relative="1" as="geometry" />
        </mxCell>
        <mxCell id="2p5wsxLzij-L3OVKS2zf-23" style="edgeStyle=orthogonalEdgeStyle;rounded=0;orthogonalLoop=1;jettySize=auto;html=1;exitX=0.5;exitY=1;exitDx=0;exitDy=0;entryX=0;entryY=0.5;entryDx=0;entryDy=0;fontSize=18;endArrow=none;endFill=0;fillColor=#d5e8d4;strokeColor=#82b366;" edge="1" parent="1" source="peJY58UMKQyecSpsiy6I-84" target="2p5wsxLzij-L3OVKS2zf-21">
          <mxGeometry relative="1" as="geometry" />
        </mxCell>
        <mxCell id="peJY58UMKQyecSpsiy6I-85" style="edgeStyle=orthogonalEdgeStyle;rounded=0;orthogonalLoop=1;jettySize=auto;html=1;exitX=0.5;exitY=0;exitDx=0;exitDy=0;fontSize=14;endArrow=none;endFill=0;fillColor=#d5e8d4;strokeColor=#82b366;entryX=0;entryY=0.5;entryDx=0;entryDy=0;" parent="1" source="peJY58UMKQyecSpsiy6I-87" target="peJY58UMKQyecSpsiy6I-141" edge="1">
          <mxGeometry relative="1" as="geometry">
            <mxPoint x="-55" y="-590" as="targetPoint" />
          </mxGeometry>
        </mxCell>
        <mxCell id="peJY58UMKQyecSpsiy6I-86" style="edgeStyle=orthogonalEdgeStyle;rounded=0;orthogonalLoop=1;jettySize=auto;html=1;exitX=0;exitY=0.5;exitDx=0;exitDy=0;fontSize=14;endArrow=none;endFill=0;fillColor=#d5e8d4;strokeColor=#82b366;shape=link;entryX=1;entryY=0.5;entryDx=0;entryDy=0;" parent="1" source="peJY58UMKQyecSpsiy6I-90" target="peJY58UMKQyecSpsiy6I-146" edge="1">
          <mxGeometry relative="1" as="geometry">
            <mxPoint x="50" y="-790" as="targetPoint" />
          </mxGeometry>
        </mxCell>
        <mxCell id="peJY58UMKQyecSpsiy6I-87" value="&lt;font style=&quot;font-size: 14px;&quot;&gt;&lt;b&gt;Noticias&lt;/b&gt;&lt;/font&gt;" style="rounded=1;whiteSpace=wrap;html=1;fillColor=#d5e8d4;strokeColor=#82b366;" parent="1" vertex="1">
          <mxGeometry x="-115" y="-470" width="120" height="60" as="geometry" />
        </mxCell>
        <mxCell id="peJY58UMKQyecSpsiy6I-88" value="&lt;span style=&quot;font-size: 14px;&quot;&gt;&lt;b&gt;Categoria&lt;/b&gt;&lt;/span&gt;" style="rounded=1;whiteSpace=wrap;html=1;fillColor=#d5e8d4;strokeColor=#82b366;" parent="1" vertex="1">
          <mxGeometry x="385" y="-470" width="120" height="60" as="geometry" />
        </mxCell>
        <mxCell id="peJY58UMKQyecSpsiy6I-89" style="edgeStyle=orthogonalEdgeStyle;rounded=0;orthogonalLoop=1;jettySize=auto;html=1;entryX=1;entryY=0.5;entryDx=0;entryDy=0;fontSize=14;endArrow=none;endFill=0;fillColor=#d5e8d4;strokeColor=#82b366;exitX=0.5;exitY=1;exitDx=0;exitDy=0;shape=link;" parent="1" source="peJY58UMKQyecSpsiy6I-90" target="peJY58UMKQyecSpsiy6I-141" edge="1">
          <mxGeometry relative="1" as="geometry" />
        </mxCell>
        <mxCell id="peJY58UMKQyecSpsiy6I-90" value="&lt;b&gt;Comentario&lt;/b&gt;" style="shape=ext;double=1;rounded=1;whiteSpace=wrap;html=1;strokeColor=#82b366;fontSize=14;fillColor=#d5e8d4;" parent="1" vertex="1">
          <mxGeometry x="120" y="-840" width="120" height="60" as="geometry" />
        </mxCell>
        <mxCell id="peJY58UMKQyecSpsiy6I-91" style="rounded=0;orthogonalLoop=1;jettySize=auto;html=1;exitX=1;exitY=0.5;exitDx=0;exitDy=0;fontSize=14;strokeColor=none;endArrow=none;endFill=0;" parent="1" source="peJY58UMKQyecSpsiy6I-93" target="peJY58UMKQyecSpsiy6I-84" edge="1">
          <mxGeometry relative="1" as="geometry" />
        </mxCell>
        <mxCell id="peJY58UMKQyecSpsiy6I-92" style="edgeStyle=none;rounded=0;orthogonalLoop=1;jettySize=auto;html=1;exitX=0;exitY=1;exitDx=0;exitDy=0;fontSize=14;endArrow=none;endFill=0;fillColor=#d5e8d4;strokeColor=#82b366;entryX=1;entryY=0.25;entryDx=0;entryDy=0;" parent="1" source="peJY58UMKQyecSpsiy6I-93" target="peJY58UMKQyecSpsiy6I-84" edge="1">
          <mxGeometry relative="1" as="geometry">
            <mxPoint x="-670" y="-830" as="targetPoint" />
          </mxGeometry>
        </mxCell>
        <mxCell id="peJY58UMKQyecSpsiy6I-93" value="&lt;b&gt;&lt;u&gt;Id&lt;/u&gt;&lt;/b&gt;" style="ellipse;whiteSpace=wrap;html=1;strokeColor=#82b366;fontSize=14;fillColor=#d5e8d4;" parent="1" vertex="1">
          <mxGeometry x="-515" y="-900" width="120" height="40" as="geometry" />
        </mxCell>
        <mxCell id="peJY58UMKQyecSpsiy6I-94" style="edgeStyle=none;rounded=0;orthogonalLoop=1;jettySize=auto;html=1;exitX=0.5;exitY=1;exitDx=0;exitDy=0;fontSize=14;endArrow=none;endFill=0;entryX=0.75;entryY=0;entryDx=0;entryDy=0;fillColor=#d5e8d4;strokeColor=#82b366;" parent="1" source="peJY58UMKQyecSpsiy6I-95" target="peJY58UMKQyecSpsiy6I-84" edge="1">
          <mxGeometry relative="1" as="geometry">
            <mxPoint x="-680" y="-860" as="targetPoint" />
          </mxGeometry>
        </mxCell>
        <mxCell id="peJY58UMKQyecSpsiy6I-95" value="&lt;b&gt;Nombre&lt;/b&gt;" style="ellipse;whiteSpace=wrap;html=1;strokeColor=#82b366;fontSize=14;fillColor=#d5e8d4;" parent="1" vertex="1">
          <mxGeometry x="-560" y="-950" width="120" height="40" as="geometry" />
        </mxCell>
        <mxCell id="peJY58UMKQyecSpsiy6I-96" style="edgeStyle=none;rounded=0;orthogonalLoop=1;jettySize=auto;html=1;exitX=0.5;exitY=1;exitDx=0;exitDy=0;entryX=0.5;entryY=0;entryDx=0;entryDy=0;fontSize=14;endArrow=none;endFill=0;fillColor=#d5e8d4;strokeColor=#82b366;" parent="1" source="peJY58UMKQyecSpsiy6I-97" target="peJY58UMKQyecSpsiy6I-84" edge="1">
          <mxGeometry relative="1" as="geometry" />
        </mxCell>
        <mxCell id="peJY58UMKQyecSpsiy6I-97" value="&lt;b&gt;Apellido&lt;/b&gt;" style="ellipse;whiteSpace=wrap;html=1;strokeColor=#82b366;fontSize=14;fillColor=#d5e8d4;" parent="1" vertex="1">
          <mxGeometry x="-635" y="-1000" width="120" height="40" as="geometry" />
        </mxCell>
        <mxCell id="peJY58UMKQyecSpsiy6I-98" style="edgeStyle=none;rounded=0;orthogonalLoop=1;jettySize=auto;html=1;fontSize=14;endArrow=none;endFill=0;exitX=1;exitY=1;exitDx=0;exitDy=0;fillColor=#d5e8d4;strokeColor=#82b366;" parent="1" source="peJY58UMKQyecSpsiy6I-99" edge="1">
          <mxGeometry relative="1" as="geometry">
            <mxPoint x="-640" y="-840" as="targetPoint" />
          </mxGeometry>
        </mxCell>
        <mxCell id="peJY58UMKQyecSpsiy6I-99" value="&lt;b&gt;Usuario&lt;br&gt;&lt;/b&gt;" style="ellipse;whiteSpace=wrap;html=1;strokeColor=#82b366;fontSize=14;fillColor=#d5e8d4;" parent="1" vertex="1">
          <mxGeometry x="-760" y="-1000" width="120" height="40" as="geometry" />
        </mxCell>
        <mxCell id="peJY58UMKQyecSpsiy6I-100" style="edgeStyle=none;rounded=0;orthogonalLoop=1;jettySize=auto;html=1;exitX=1;exitY=1;exitDx=0;exitDy=0;fontSize=14;endArrow=none;endFill=0;fillColor=#d5e8d4;strokeColor=#82b366;entryX=0;entryY=0.25;entryDx=0;entryDy=0;" parent="1" source="peJY58UMKQyecSpsiy6I-101" target="peJY58UMKQyecSpsiy6I-84" edge="1">
          <mxGeometry relative="1" as="geometry">
            <mxPoint x="-550" y="-850" as="targetPoint" />
          </mxGeometry>
        </mxCell>
        <mxCell id="peJY58UMKQyecSpsiy6I-101" value="&lt;b&gt;PassW&lt;/b&gt;" style="ellipse;whiteSpace=wrap;html=1;strokeColor=#82b366;fontSize=14;fillColor=#d5e8d4;" parent="1" vertex="1">
          <mxGeometry x="-870" y="-910" width="120" height="40" as="geometry" />
        </mxCell>
        <mxCell id="peJY58UMKQyecSpsiy6I-102" style="edgeStyle=none;rounded=0;orthogonalLoop=1;jettySize=auto;html=1;exitX=1;exitY=1;exitDx=0;exitDy=0;fontSize=14;endArrow=none;endFill=0;entryX=0.05;entryY=0.036;entryDx=0;entryDy=0;fillColor=#d5e8d4;strokeColor=#82b366;entryPerimeter=0;" parent="1" source="peJY58UMKQyecSpsiy6I-103" target="peJY58UMKQyecSpsiy6I-84" edge="1">
          <mxGeometry relative="1" as="geometry">
            <mxPoint x="-540" y="-840" as="targetPoint" />
          </mxGeometry>
        </mxCell>
        <mxCell id="peJY58UMKQyecSpsiy6I-103" value="&lt;b&gt;Email&lt;/b&gt;" style="ellipse;whiteSpace=wrap;html=1;strokeColor=#82b366;fontSize=14;fillColor=#d5e8d4;" parent="1" vertex="1">
          <mxGeometry x="-830" y="-960" width="120" height="40" as="geometry" />
        </mxCell>
        <mxCell id="peJY58UMKQyecSpsiy6I-104" style="edgeStyle=none;rounded=0;orthogonalLoop=1;jettySize=auto;html=1;exitX=1;exitY=0;exitDx=0;exitDy=0;entryX=0.25;entryY=1;entryDx=0;entryDy=0;fontSize=14;endArrow=none;endFill=0;fillColor=#d5e8d4;strokeColor=#82b366;" parent="1" source="peJY58UMKQyecSpsiy6I-105" target="peJY58UMKQyecSpsiy6I-84" edge="1">
          <mxGeometry relative="1" as="geometry" />
        </mxCell>
        <mxCell id="peJY58UMKQyecSpsiy6I-105" value="&lt;b&gt;ImagenPerfil&lt;/b&gt;" style="ellipse;whiteSpace=wrap;html=1;strokeColor=#82b366;fontSize=14;fillColor=#d5e8d4;" parent="1" vertex="1">
          <mxGeometry x="-780" y="-710" width="120" height="40" as="geometry" />
        </mxCell>
        <mxCell id="peJY58UMKQyecSpsiy6I-106" style="edgeStyle=none;rounded=0;orthogonalLoop=1;jettySize=auto;html=1;exitX=1;exitY=0.5;exitDx=0;exitDy=0;entryX=0;entryY=0.5;entryDx=0;entryDy=0;fontSize=14;endArrow=none;endFill=0;fillColor=#d5e8d4;strokeColor=#82b366;" parent="1" source="2p5wsxLzij-L3OVKS2zf-10" target="peJY58UMKQyecSpsiy6I-84" edge="1">
          <mxGeometry relative="1" as="geometry">
            <mxPoint x="-787.573593128807" y="-825.8578643762689" as="sourcePoint" />
          </mxGeometry>
        </mxCell>
        <mxCell id="peJY58UMKQyecSpsiy6I-107" style="edgeStyle=none;rounded=0;orthogonalLoop=1;jettySize=auto;html=1;exitX=1;exitY=0.5;exitDx=0;exitDy=0;fontSize=14;endArrow=none;endFill=0;fillColor=#d5e8d4;strokeColor=#82b366;entryX=0;entryY=0.75;entryDx=0;entryDy=0;" parent="1" source="peJY58UMKQyecSpsiy6I-108" target="peJY58UMKQyecSpsiy6I-84" edge="1">
          <mxGeometry relative="1" as="geometry" />
        </mxCell>
        <mxCell id="peJY58UMKQyecSpsiy6I-108" value="&lt;b&gt;Tipo&lt;/b&gt;" style="ellipse;whiteSpace=wrap;html=1;strokeColor=#82b366;fontSize=14;fillColor=#d5e8d4;" parent="1" vertex="1">
          <mxGeometry x="-880" y="-810" width="120" height="40" as="geometry" />
        </mxCell>
        <mxCell id="peJY58UMKQyecSpsiy6I-110" style="edgeStyle=none;rounded=0;orthogonalLoop=1;jettySize=auto;html=1;exitX=1;exitY=0.5;exitDx=0;exitDy=0;fontSize=14;endArrow=none;endFill=0;fillColor=#d5e8d4;strokeColor=#82b366;entryX=0;entryY=1;entryDx=0;entryDy=0;" parent="1" source="peJY58UMKQyecSpsiy6I-111" target="peJY58UMKQyecSpsiy6I-84" edge="1">
          <mxGeometry relative="1" as="geometry" />
        </mxCell>
        <mxCell id="peJY58UMKQyecSpsiy6I-111" value="&lt;b&gt;FechaCreacion&lt;/b&gt;" style="ellipse;whiteSpace=wrap;html=1;strokeColor=#82b366;fontSize=14;fillColor=#d5e8d4;" parent="1" vertex="1">
          <mxGeometry x="-860" y="-755" width="120" height="40" as="geometry" />
        </mxCell>
        <mxCell id="peJY58UMKQyecSpsiy6I-112" style="edgeStyle=none;rounded=0;orthogonalLoop=1;jettySize=auto;html=1;exitX=0.5;exitY=1;exitDx=0;exitDy=0;entryX=0.25;entryY=0;entryDx=0;entryDy=0;fontSize=14;endArrow=none;endFill=0;fillColor=#d5e8d4;strokeColor=#82b366;" parent="1" source="peJY58UMKQyecSpsiy6I-113" target="peJY58UMKQyecSpsiy6I-90" edge="1">
          <mxGeometry relative="1" as="geometry">
            <mxPoint x="330" y="-920" as="targetPoint" />
          </mxGeometry>
        </mxCell>
        <mxCell id="peJY58UMKQyecSpsiy6I-113" value="&lt;b&gt;&lt;u&gt;Id&lt;/u&gt;&lt;/b&gt;" style="ellipse;whiteSpace=wrap;html=1;strokeColor=#82b366;fontSize=14;fillColor=#d5e8d4;" parent="1" vertex="1">
          <mxGeometry x="5" y="-930" width="120" height="40" as="geometry" />
        </mxCell>
        <mxCell id="peJY58UMKQyecSpsiy6I-114" value="" style="edgeStyle=none;rounded=0;orthogonalLoop=1;jettySize=auto;html=1;fontSize=14;endArrow=none;endFill=0;entryX=0.5;entryY=0;entryDx=0;entryDy=0;fillColor=#d5e8d4;strokeColor=#82b366;" parent="1" source="peJY58UMKQyecSpsiy6I-115" target="peJY58UMKQyecSpsiy6I-90" edge="1">
          <mxGeometry relative="1" as="geometry" />
        </mxCell>
        <mxCell id="peJY58UMKQyecSpsiy6I-115" value="&lt;b&gt;Comentario&lt;br&gt;&lt;/b&gt;" style="ellipse;whiteSpace=wrap;html=1;strokeColor=#82b366;fontSize=14;fillColor=#d5e8d4;" parent="1" vertex="1">
          <mxGeometry x="125" y="-960" width="120" height="40" as="geometry" />
        </mxCell>
        <mxCell id="peJY58UMKQyecSpsiy6I-116" style="edgeStyle=none;rounded=0;orthogonalLoop=1;jettySize=auto;html=1;exitX=0;exitY=0.5;exitDx=0;exitDy=0;fontSize=14;endArrow=none;endFill=0;fillColor=#d5e8d4;strokeColor=#82b366;entryX=0.75;entryY=0;entryDx=0;entryDy=0;" parent="1" source="peJY58UMKQyecSpsiy6I-117" target="peJY58UMKQyecSpsiy6I-90" edge="1">
          <mxGeometry relative="1" as="geometry">
            <mxPoint x="120" y="-820" as="targetPoint" />
          </mxGeometry>
        </mxCell>
        <mxCell id="peJY58UMKQyecSpsiy6I-117" value="&lt;b&gt;FechaComentario&lt;/b&gt;" style="ellipse;whiteSpace=wrap;html=1;strokeColor=#82b366;fontSize=14;fillColor=#d5e8d4;" parent="1" vertex="1">
          <mxGeometry x="230" y="-900" width="120" height="40" as="geometry" />
        </mxCell>
        <mxCell id="peJY58UMKQyecSpsiy6I-118" style="edgeStyle=none;rounded=0;orthogonalLoop=1;jettySize=auto;html=1;exitX=1;exitY=0.5;exitDx=0;exitDy=0;fontSize=14;endArrow=none;endFill=0;fillColor=#d5e8d4;strokeColor=#82b366;entryX=0.25;entryY=0;entryDx=0;entryDy=0;" parent="1" source="peJY58UMKQyecSpsiy6I-119" target="peJY58UMKQyecSpsiy6I-87" edge="1">
          <mxGeometry relative="1" as="geometry">
            <mxPoint x="25" y="-540" as="targetPoint" />
          </mxGeometry>
        </mxCell>
        <mxCell id="peJY58UMKQyecSpsiy6I-119" value="&lt;b&gt;&lt;u&gt;Id&lt;/u&gt;&lt;/b&gt;" style="ellipse;whiteSpace=wrap;html=1;strokeColor=#82b366;fontSize=14;fillColor=#d5e8d4;" parent="1" vertex="1">
          <mxGeometry x="-230" y="-620" width="120" height="40" as="geometry" />
        </mxCell>
        <mxCell id="peJY58UMKQyecSpsiy6I-120" style="edgeStyle=none;rounded=0;orthogonalLoop=1;jettySize=auto;html=1;entryX=0;entryY=0;entryDx=0;entryDy=0;fontSize=14;endArrow=none;endFill=0;exitX=1;exitY=0.5;exitDx=0;exitDy=0;fillColor=#d5e8d4;strokeColor=#82b366;" parent="1" source="peJY58UMKQyecSpsiy6I-121" target="peJY58UMKQyecSpsiy6I-87" edge="1">
          <mxGeometry relative="1" as="geometry">
            <mxPoint x="5.000000000000028" y="-470.0600000000002" as="targetPoint" />
          </mxGeometry>
        </mxCell>
        <mxCell id="peJY58UMKQyecSpsiy6I-121" value="&lt;b&gt;Titulo&lt;br&gt;&lt;/b&gt;" style="ellipse;whiteSpace=wrap;html=1;strokeColor=#82b366;fontSize=14;fillColor=#d5e8d4;" parent="1" vertex="1">
          <mxGeometry x="-280" y="-570" width="120" height="40" as="geometry" />
        </mxCell>
        <mxCell id="peJY58UMKQyecSpsiy6I-122" style="edgeStyle=none;rounded=0;orthogonalLoop=1;jettySize=auto;html=1;fontSize=14;endArrow=none;endFill=0;exitX=1;exitY=0.5;exitDx=0;exitDy=0;fillColor=#d5e8d4;strokeColor=#82b366;" parent="1" source="peJY58UMKQyecSpsiy6I-123" edge="1">
          <mxGeometry relative="1" as="geometry">
            <mxPoint x="-115" y="-446" as="targetPoint" />
          </mxGeometry>
        </mxCell>
        <mxCell id="peJY58UMKQyecSpsiy6I-123" value="&lt;b&gt;Teaser&lt;/b&gt;" style="ellipse;whiteSpace=wrap;html=1;strokeColor=#82b366;fontSize=14;fillColor=#d5e8d4;" parent="1" vertex="1">
          <mxGeometry x="-315" y="-520" width="120" height="40" as="geometry" />
        </mxCell>
        <mxCell id="peJY58UMKQyecSpsiy6I-124" style="edgeStyle=none;rounded=0;orthogonalLoop=1;jettySize=auto;html=1;entryX=0;entryY=0.5;entryDx=0;entryDy=0;fontSize=14;endArrow=none;endFill=0;exitX=1;exitY=0.5;exitDx=0;exitDy=0;fillColor=#d5e8d4;strokeColor=#82b366;" parent="1" source="peJY58UMKQyecSpsiy6I-125" target="peJY58UMKQyecSpsiy6I-87" edge="1">
          <mxGeometry relative="1" as="geometry">
            <mxPoint x="25" y="-565" as="targetPoint" />
          </mxGeometry>
        </mxCell>
        <mxCell id="peJY58UMKQyecSpsiy6I-125" value="&lt;b&gt;Contenido&lt;br&gt;&lt;/b&gt;" style="ellipse;whiteSpace=wrap;html=1;strokeColor=#82b366;fontSize=14;fillColor=#d5e8d4;" parent="1" vertex="1">
          <mxGeometry x="-315" y="-415" width="120" height="40" as="geometry" />
        </mxCell>
        <mxCell id="peJY58UMKQyecSpsiy6I-126" style="edgeStyle=none;rounded=0;orthogonalLoop=1;jettySize=auto;html=1;entryX=0;entryY=1;entryDx=0;entryDy=0;fontSize=14;endArrow=none;endFill=0;exitX=1;exitY=0.5;exitDx=0;exitDy=0;fillColor=#d5e8d4;strokeColor=#82b366;" parent="1" source="peJY58UMKQyecSpsiy6I-127" target="peJY58UMKQyecSpsiy6I-87" edge="1">
          <mxGeometry relative="1" as="geometry">
            <mxPoint x="65" y="-447.5" as="targetPoint" />
          </mxGeometry>
        </mxCell>
        <mxCell id="peJY58UMKQyecSpsiy6I-127" value="&lt;b&gt;Imagen&lt;br&gt;&lt;/b&gt;" style="ellipse;whiteSpace=wrap;html=1;strokeColor=#82b366;fontSize=14;fillColor=#d5e8d4;" parent="1" vertex="1">
          <mxGeometry x="-250" y="-320" width="120" height="40" as="geometry" />
        </mxCell>
        <mxCell id="peJY58UMKQyecSpsiy6I-128" style="edgeStyle=none;rounded=0;orthogonalLoop=1;jettySize=auto;html=1;exitX=1;exitY=0.5;exitDx=0;exitDy=0;fontSize=14;endArrow=none;endFill=0;fillColor=#d5e8d4;strokeColor=#82b366;entryX=0;entryY=0.75;entryDx=0;entryDy=0;" parent="1" source="peJY58UMKQyecSpsiy6I-129" target="peJY58UMKQyecSpsiy6I-87" edge="1">
          <mxGeometry relative="1" as="geometry">
            <mxPoint x="35" y="-557.2727272727273" as="targetPoint" />
          </mxGeometry>
        </mxCell>
        <mxCell id="peJY58UMKQyecSpsiy6I-129" value="&lt;b&gt;FechaCreacion&lt;/b&gt;" style="ellipse;whiteSpace=wrap;html=1;strokeColor=#82b366;fontSize=14;fillColor=#d5e8d4;" parent="1" vertex="1">
          <mxGeometry x="-300" y="-370" width="120" height="40" as="geometry" />
        </mxCell>
        <mxCell id="peJY58UMKQyecSpsiy6I-130" style="edgeStyle=none;rounded=0;orthogonalLoop=1;jettySize=auto;html=1;exitX=1;exitY=0.5;exitDx=0;exitDy=0;fontSize=14;endArrow=none;endFill=0;fillColor=#d5e8d4;strokeColor=#82b366;entryX=0.25;entryY=1;entryDx=0;entryDy=0;" parent="1" source="2p5wsxLzij-L3OVKS2zf-11" target="peJY58UMKQyecSpsiy6I-87" edge="1">
          <mxGeometry relative="1" as="geometry">
            <mxPoint x="5" y="-470" as="targetPoint" />
            <mxPoint x="-105.00000000000864" y="-280" as="sourcePoint" />
          </mxGeometry>
        </mxCell>
        <mxCell id="peJY58UMKQyecSpsiy6I-132" style="edgeStyle=none;rounded=0;orthogonalLoop=1;jettySize=auto;html=1;exitX=0.5;exitY=1;exitDx=0;exitDy=0;entryX=1;entryY=0.25;entryDx=0;entryDy=0;fontSize=14;endArrow=none;endFill=0;fillColor=#d5e8d4;strokeColor=#82b366;" parent="1" source="peJY58UMKQyecSpsiy6I-133" target="peJY58UMKQyecSpsiy6I-88" edge="1">
          <mxGeometry relative="1" as="geometry">
            <mxPoint x="460" y="-330" as="targetPoint" />
          </mxGeometry>
        </mxCell>
        <mxCell id="peJY58UMKQyecSpsiy6I-133" value="&lt;b&gt;&lt;u&gt;Id&lt;/u&gt;&lt;/b&gt;" style="ellipse;whiteSpace=wrap;html=1;strokeColor=#82b366;fontSize=14;fillColor=#d5e8d4;" parent="1" vertex="1">
          <mxGeometry x="530" y="-510" width="120" height="40" as="geometry" />
        </mxCell>
        <mxCell id="peJY58UMKQyecSpsiy6I-134" value="" style="edgeStyle=none;rounded=0;orthogonalLoop=1;jettySize=auto;html=1;fontSize=14;endArrow=none;endFill=0;fillColor=#d5e8d4;strokeColor=#82b366;" parent="1" source="peJY58UMKQyecSpsiy6I-135" target="peJY58UMKQyecSpsiy6I-88" edge="1">
          <mxGeometry relative="1" as="geometry">
            <mxPoint x="490" y="-330" as="targetPoint" />
          </mxGeometry>
        </mxCell>
        <mxCell id="peJY58UMKQyecSpsiy6I-135" value="&lt;b&gt;Comentario&lt;br&gt;&lt;/b&gt;" style="ellipse;whiteSpace=wrap;html=1;strokeColor=#82b366;fontSize=14;fillColor=#d5e8d4;" parent="1" vertex="1">
          <mxGeometry x="550" y="-440" width="120" height="40" as="geometry" />
        </mxCell>
        <mxCell id="peJY58UMKQyecSpsiy6I-136" style="edgeStyle=none;rounded=0;orthogonalLoop=1;jettySize=auto;html=1;exitX=0;exitY=0.5;exitDx=0;exitDy=0;entryX=1;entryY=0.5;entryDx=0;entryDy=0;fontSize=14;endArrow=none;endFill=0;fillColor=#d5e8d4;strokeColor=#82b366;" parent="1" source="peJY58UMKQyecSpsiy6I-138" target="peJY58UMKQyecSpsiy6I-87" edge="1">
          <mxGeometry relative="1" as="geometry" />
        </mxCell>
        <mxCell id="peJY58UMKQyecSpsiy6I-137" style="edgeStyle=none;rounded=0;orthogonalLoop=1;jettySize=auto;html=1;exitX=1;exitY=0.5;exitDx=0;exitDy=0;entryX=0;entryY=0.5;entryDx=0;entryDy=0;fontSize=14;endArrow=none;endFill=0;fillColor=#d5e8d4;strokeColor=#82b366;" parent="1" source="peJY58UMKQyecSpsiy6I-138" target="peJY58UMKQyecSpsiy6I-88" edge="1">
          <mxGeometry relative="1" as="geometry" />
        </mxCell>
        <mxCell id="peJY58UMKQyecSpsiy6I-138" value="&lt;b&gt;Tiene&lt;/b&gt;" style="rhombus;whiteSpace=wrap;html=1;strokeColor=#82b366;fontSize=14;fillColor=#d5e8d4;" parent="1" vertex="1">
          <mxGeometry x="160" y="-480" width="80" height="80" as="geometry" />
        </mxCell>
        <mxCell id="peJY58UMKQyecSpsiy6I-139" value="&lt;b&gt;(1,N)&lt;/b&gt;" style="text;html=1;strokeColor=none;fillColor=none;align=center;verticalAlign=middle;whiteSpace=wrap;rounded=0;fontSize=14;" parent="1" vertex="1">
          <mxGeometry x="115" y="-470" width="60" height="30" as="geometry" />
        </mxCell>
        <mxCell id="peJY58UMKQyecSpsiy6I-140" value="&lt;b&gt;(1,1)&lt;/b&gt;" style="text;html=1;strokeColor=none;fillColor=none;align=center;verticalAlign=middle;whiteSpace=wrap;rounded=0;fontSize=14;" parent="1" vertex="1">
          <mxGeometry x="215" y="-470" width="60" height="30" as="geometry" />
        </mxCell>
        <mxCell id="peJY58UMKQyecSpsiy6I-141" value="&lt;b&gt;Tiene&lt;/b&gt;" style="rhombus;whiteSpace=wrap;html=1;strokeColor=#82b366;fontSize=14;fillColor=#d5e8d4;" parent="1" vertex="1">
          <mxGeometry y="-700" width="80" height="80" as="geometry" />
        </mxCell>
        <mxCell id="peJY58UMKQyecSpsiy6I-142" value="&lt;b&gt;(1,N)&lt;/b&gt;" style="text;html=1;strokeColor=none;fillColor=none;align=center;verticalAlign=middle;whiteSpace=wrap;rounded=0;fontSize=14;rotation=0;" parent="1" vertex="1">
          <mxGeometry x="-40" y="-660" width="60" height="30" as="geometry" />
        </mxCell>
        <mxCell id="peJY58UMKQyecSpsiy6I-143" value="&lt;b&gt;(1,1)&lt;/b&gt;" style="text;html=1;strokeColor=none;fillColor=none;align=center;verticalAlign=middle;whiteSpace=wrap;rounded=0;fontSize=14;rotation=0;" parent="1" vertex="1">
          <mxGeometry x="60" y="-660" width="60" height="30" as="geometry" />
        </mxCell>
        <mxCell id="peJY58UMKQyecSpsiy6I-144" value="&lt;b&gt;(1,N)&lt;/b&gt;" style="text;html=1;strokeColor=none;fillColor=none;align=center;verticalAlign=middle;whiteSpace=wrap;rounded=0;fontSize=14;" parent="1" vertex="1">
          <mxGeometry x="170" y="-510" width="60" height="30" as="geometry" />
        </mxCell>
        <mxCell id="peJY58UMKQyecSpsiy6I-145" value="&lt;b&gt;(1,N)&lt;/b&gt;" style="text;html=1;strokeColor=none;fillColor=none;align=center;verticalAlign=middle;whiteSpace=wrap;rounded=0;fontSize=14;rotation=0;" parent="1" vertex="1">
          <mxGeometry x="10" y="-730" width="60" height="30" as="geometry" />
        </mxCell>
        <mxCell id="peJY58UMKQyecSpsiy6I-146" value="&lt;b&gt;Realiza&lt;/b&gt;" style="rhombus;whiteSpace=wrap;html=1;strokeColor=#82b366;fontSize=14;fillColor=#d5e8d4;" parent="1" vertex="1">
          <mxGeometry x="-160" y="-850" width="80" height="80" as="geometry" />
        </mxCell>
        <mxCell id="peJY58UMKQyecSpsiy6I-147" value="&lt;b&gt;(1,N)&lt;/b&gt;" style="text;html=1;strokeColor=none;fillColor=none;align=center;verticalAlign=middle;whiteSpace=wrap;rounded=0;fontSize=14;" parent="1" vertex="1">
          <mxGeometry x="-205" y="-810" width="60" height="30" as="geometry" />
        </mxCell>
        <mxCell id="peJY58UMKQyecSpsiy6I-148" value="&lt;b&gt;(1,1)&lt;/b&gt;" style="text;html=1;strokeColor=none;fillColor=none;align=center;verticalAlign=middle;whiteSpace=wrap;rounded=0;fontSize=14;" parent="1" vertex="1">
          <mxGeometry x="-90" y="-810" width="60" height="30" as="geometry" />
        </mxCell>
        <mxCell id="peJY58UMKQyecSpsiy6I-149" value="&lt;b&gt;(1,N)&lt;/b&gt;" style="text;html=1;strokeColor=none;fillColor=none;align=center;verticalAlign=middle;whiteSpace=wrap;rounded=0;fontSize=14;" parent="1" vertex="1">
          <mxGeometry x="-145" y="-880" width="60" height="30" as="geometry" />
        </mxCell>
        <mxCell id="peJY58UMKQyecSpsiy6I-150" style="edgeStyle=none;rounded=0;orthogonalLoop=1;jettySize=auto;html=1;exitX=0;exitY=0.5;exitDx=0;exitDy=0;fontSize=14;endArrow=none;endFill=0;fillColor=#d5e8d4;strokeColor=#82b366;entryX=1;entryY=0.5;entryDx=0;entryDy=0;" parent="1" source="2p5wsxLzij-L3OVKS2zf-12" target="peJY58UMKQyecSpsiy6I-90" edge="1">
          <mxGeometry relative="1" as="geometry">
            <mxPoint x="400" y="-830" as="targetPoint" />
            <mxPoint x="289.99999999999955" y="-810" as="sourcePoint" />
          </mxGeometry>
        </mxCell>
        <mxCell id="peJY58UMKQyecSpsiy6I-152" value="" style="endArrow=none;dashed=1;html=1;dashPattern=1 3;strokeWidth=2;rounded=0;fontSize=14;startArrow=oval;startFill=1;endFill=0;edgeStyle=orthogonalEdgeStyle;exitX=0.5;exitY=0;exitDx=0;exitDy=0;entryX=0.25;entryY=0;entryDx=0;entryDy=0;" parent="1" source="peJY58UMKQyecSpsiy6I-1" target="peJY58UMKQyecSpsiy6I-20" edge="1">
          <mxGeometry width="50" height="50" relative="1" as="geometry">
            <mxPoint x="-370.02" y="-30" as="sourcePoint" />
            <mxPoint x="139.98000000000002" y="-30" as="targetPoint" />
            <Array as="points">
              <mxPoint x="-365" y="-70" />
              <mxPoint x="140" y="-70" />
              <mxPoint x="140" />
            </Array>
          </mxGeometry>
        </mxCell>
        <mxCell id="peJY58UMKQyecSpsiy6I-153" value="" style="endArrow=oval;dashed=1;html=1;dashPattern=1 3;strokeWidth=2;rounded=0;fontSize=14;exitX=0.5;exitY=1;exitDx=0;exitDy=0;startArrow=none;startFill=0;endFill=1;entryX=0.5;entryY=0;entryDx=0;entryDy=0;" parent="1" source="peJY58UMKQyecSpsiy6I-76" target="peJY58UMKQyecSpsiy6I-20" edge="1">
          <mxGeometry width="50" height="50" relative="1" as="geometry">
            <mxPoint x="-355" y="10" as="sourcePoint" />
            <mxPoint x="150.00000000000023" y="10" as="targetPoint" />
          </mxGeometry>
        </mxCell>
        <mxCell id="peJY58UMKQyecSpsiy6I-154" value="" style="endArrow=none;dashed=1;html=1;dashPattern=1 3;strokeWidth=2;rounded=0;fontSize=14;exitX=0.5;exitY=1;exitDx=0;exitDy=0;startArrow=oval;startFill=1;endFill=0;entryX=0.5;entryY=0;entryDx=0;entryDy=0;edgeStyle=orthogonalEdgeStyle;" parent="1" source="peJY58UMKQyecSpsiy6I-1" target="peJY58UMKQyecSpsiy6I-45" edge="1">
          <mxGeometry width="50" height="50" relative="1" as="geometry">
            <mxPoint x="-105.86999999999978" y="210" as="sourcePoint" />
            <mxPoint x="-105.86999999999978" y="320" as="targetPoint" />
          </mxGeometry>
        </mxCell>
        <mxCell id="peJY58UMKQyecSpsiy6I-155" value="FK1" style="shape=partialRectangle;overflow=hidden;connectable=0;fillColor=none;top=0;left=0;bottom=0;right=0;" parent="1" vertex="1">
          <mxGeometry x="-490" y="160" width="30" height="30" as="geometry">
            <mxRectangle width="30" height="30" as="alternateBounds" />
          </mxGeometry>
        </mxCell>
        <mxCell id="peJY58UMKQyecSpsiy6I-156" value="FK2" style="shape=partialRectangle;overflow=hidden;connectable=0;fillColor=none;top=0;left=0;bottom=0;right=0;" parent="1" vertex="1">
          <mxGeometry x="-490" y="190" width="30" height="30" as="geometry">
            <mxRectangle width="30" height="30" as="alternateBounds" />
          </mxGeometry>
        </mxCell>
        <mxCell id="2p5wsxLzij-L3OVKS2zf-10" value="&lt;b&gt;Estatus&lt;/b&gt;" style="ellipse;whiteSpace=wrap;html=1;strokeColor=#82b366;fontSize=14;fillColor=#d5e8d4;" vertex="1" parent="1">
          <mxGeometry x="-900" y="-860" width="120" height="40" as="geometry" />
        </mxCell>
        <mxCell id="2p5wsxLzij-L3OVKS2zf-11" value="&lt;b&gt;Estatus&lt;/b&gt;" style="ellipse;whiteSpace=wrap;html=1;strokeColor=#82b366;fontSize=14;fillColor=#d5e8d4;" vertex="1" parent="1">
          <mxGeometry x="-190" y="-280" width="120" height="40" as="geometry" />
        </mxCell>
        <mxCell id="2p5wsxLzij-L3OVKS2zf-12" value="&lt;b&gt;Estatus&lt;/b&gt;" style="ellipse;whiteSpace=wrap;html=1;strokeColor=#82b366;fontSize=14;fillColor=#d5e8d4;" vertex="1" parent="1">
          <mxGeometry x="300" y="-830" width="120" height="40" as="geometry" />
        </mxCell>
        <mxCell id="2p5wsxLzij-L3OVKS2zf-17" value="" style="endArrow=oval;dashed=1;html=1;dashPattern=1 3;strokeWidth=2;rounded=0;fontSize=18;exitX=1.017;exitY=0.176;exitDx=0;exitDy=0;exitPerimeter=0;entryX=0.25;entryY=1;entryDx=0;entryDy=0;edgeStyle=orthogonalEdgeStyle;endFill=1;" edge="1" parent="1" source="peJY58UMKQyecSpsiy6I-61" target="peJY58UMKQyecSpsiy6I-20">
          <mxGeometry width="50" height="50" relative="1" as="geometry">
            <mxPoint x="170" y="380" as="sourcePoint" />
            <mxPoint x="220" y="330" as="targetPoint" />
          </mxGeometry>
        </mxCell>
        <mxCell id="2p5wsxLzij-L3OVKS2zf-22" style="rounded=0;orthogonalLoop=1;jettySize=auto;html=1;exitX=1;exitY=0.5;exitDx=0;exitDy=0;fontSize=18;endArrow=none;endFill=0;entryX=0;entryY=0.5;entryDx=0;entryDy=0;fillColor=#d5e8d4;strokeColor=#82b366;" edge="1" parent="1" source="2p5wsxLzij-L3OVKS2zf-21" target="peJY58UMKQyecSpsiy6I-87">
          <mxGeometry relative="1" as="geometry">
            <mxPoint x="-120" y="-440" as="targetPoint" />
          </mxGeometry>
        </mxCell>
        <mxCell id="2p5wsxLzij-L3OVKS2zf-21" value="&lt;b&gt;pÃºblica&lt;/b&gt;" style="rhombus;whiteSpace=wrap;html=1;strokeColor=#82b366;fontSize=14;fillColor=#d5e8d4;" vertex="1" parent="1">
          <mxGeometry x="-520" y="-480" width="80" height="80" as="geometry" />
        </mxCell>
        <mxCell id="2p5wsxLzij-L3OVKS2zf-24" value="&lt;b&gt;(1,N)&lt;/b&gt;" style="text;html=1;strokeColor=none;fillColor=none;align=center;verticalAlign=middle;whiteSpace=wrap;rounded=0;fontSize=14;rotation=0;" vertex="1" parent="1">
          <mxGeometry x="-510" y="-505" width="60" height="30" as="geometry" />
        </mxCell>
        <mxCell id="2p5wsxLzij-L3OVKS2zf-25" value="&lt;b&gt;(1,N)&lt;/b&gt;" style="text;html=1;strokeColor=none;fillColor=none;align=center;verticalAlign=middle;whiteSpace=wrap;rounded=0;fontSize=14;rotation=0;" vertex="1" parent="1">
          <mxGeometry x="-570" y="-445" width="60" height="30" as="geometry" />
        </mxCell>
        <mxCell id="2p5wsxLzij-L3OVKS2zf-26" value="&lt;b&gt;(1,1)&lt;/b&gt;" style="text;html=1;strokeColor=none;fillColor=none;align=center;verticalAlign=middle;whiteSpace=wrap;rounded=0;fontSize=14;" vertex="1" parent="1">
          <mxGeometry x="-460" y="-445" width="60" height="30" as="geometry" />
        </mxCell>
        <mxCell id="peJY58UMKQyecSpsiy6I-84" value="&lt;font style=&quot;font-size: 14px;&quot;&gt;&lt;b&gt;Usuario&lt;/b&gt;&lt;/font&gt;" style="rounded=1;whiteSpace=wrap;html=1;fillColor=#d5e8d4;strokeColor=#82b366;" parent="1" vertex="1">
          <mxGeometry x="-670" y="-840" width="120" height="60" as="geometry" />
        </mxCell>
      </root>
    </mxGraphModel>
  </diagram>
</mxfile>
